<svg xmlns="http://www.w3.org/2000/svg" viewBox="0 0 512 512">
<g transform="translate(0,512) scale(0.1,-0.1)">
<path d="M2045 4647 c-162 -54 -254 -210 -213 -363 8 -28 91 -184 192 -360 99 -170 180 -310 181 -312 3 -4 339 579 343 596 5 20 -157 298 -205 352 -71 80 -203 118 -298 87z"/>
<path d="M3255 4647 c-62 -21 -97 -42 -137 -84 -21 -22 -328 -543 -741 -1258 -387 -671 -710 -1231 -717 -1244 -12 -23 -10 -27 16 -49 16 -13 61 -53 101 -88 l72 -64 198 2 198 3 682 1180 c374 649 687 1200 695 1225 55 185 -77 373 -271 386 -31 2 -74 -2 -96 -9z"/>
<path d="M2 3468 c4 -121 9 -155 32 -223 83 -244 290 -422 539 -465 l66 -12 30 -71 c16 -40 68 -170 116 -289 l86 -217 37 7 c20 4 92 7 160 7 67 0 122 0 122 1 0 1 -56 138 -123 306 l-124 304 65 35 c35 19 93 60 127 92 l63 57 329 0 328 0 89 153 88 152 -31 59 c-18 32 -57 101 -87 152 l-55 94 -931 0 -931 0 5 -142z"/>
<path d="M3586 3588 c-45 -73 -156 -271 -156 -278 0 -5 39 -77 86 -160 l87 -150 654 0 653 0 -2 303 -3 302 -652 3 -652 2 -15 -22z"/>
<path d="M3075 2703 c-93 -163 -169 -299 -168 -303 3 -11 294 -514 305 -527 8 -10 62 -13 209 -13 l199 0 62 60 c35 33 78 70 95 83 18 12 33 26 33 31 0 12 -552 966 -559 966 -3 0 -82 -134 -176 -297z"/>
<path d="M915 1896 c-223 -51 -404 -195 -500 -398 -52 -111 -69 -187 -69 -313 0 -126 17 -203 68 -310 158 -332 537 -491 890 -374 96 32 194 95 276 178 134 137 198 281 207 472 7 136 -12 231 -74 359 -39 81 -59 107 -137 185 -99 98 -176 146 -301 185 -89 28 -272 36 -360 16z"/>
<path d="M4245 1896 c-258 -60 -459 -242 -542 -491 -24 -71 -27 -95 -27 -220 0 -127 2 -147 27 -220 82 -235 256 -402 497 -476 97 -30 271 -33 370 -6 255 69 442 251 521 507 28 90 33 270 10 359 -65 254 -241 444 -486 527 -98 33 -273 42 -370 20z"/>
<path d="M2041 1503 c29 -86 49 -214 49 -318 0 -104 -20 -232 -49 -317 l-20 -58 711 0 c672 0 710 1 703 18 -4 9 -19 58 -32 107 -46 170 -42 364 11 547 l23 78 -708 0 -708 0 20 -57z"/>
</g>
</svg>
