<svg xmlns="http://www.w3.org/2000/svg" viewBox="0 0 512 512">
<g transform="translate(0,512) scale(0.1,-0.1)">
<path d="M478 5103 c-14 -9 -31 -27 -37 -40 -7 -16 -11 -147 -11 -379 l0 -356 29 -29 29 -29 171 0 c97 0 171 -4 171 -9 0 -5 -21 -44 -46 -86 -25 -43 -81 -148 -124 -235 -291 -581 -442 -1154 -443 -1685 -1 -294 46 -551 148 -811 207 -529 559 -908 1090 -1172 619 -308 1270 -352 1903 -130 685 240 1148 672 1396 1302 103 259 150 515 149 811 -1 531 -152 1104 -444 1686 -43 86 -98 191 -123 234 -25 42 -46 81 -46 86 0 5 74 9 171 9 l171 0 29 29 29 29 0 356 c0 234 -4 363 -11 379 -6 13 -23 31 -39 40 -25 15 -88 17 -652 17 -679 0 -692 -1 -788 -57 -69 -41 -134 -112 -171 -189 -32 -66 -34 -74 -34 -179 0 -102 2 -115 31 -175 17 -36 62 -101 99 -145 212 -248 441 -597 599 -915 231 -465 337 -878 323 -1260 -8 -235 -69 -420 -203 -622 -76 -116 -254 -301 -369 -386 -321 -236 -720 -367 -1016 -332 -364 42 -716 216 -990 489 -194 194 -303 376 -367 611 -24 88 -26 111 -26 305 0 179 3 229 23 335 53 285 140 538 286 835 165 336 389 682 610 940 37 44 82 109 99 145 29 60 31 73 31 175 0 104 -2 114 -32 176 -41 83 -96 145 -164 186 -105 63 -108 63 -799 63 -564 -1 -628 -2 -652 -17z m677 -1072 c130 -59 164 -225 69 -331 -97 -108 -273 -87 -343 40 -45 81 -27 194 41 257 56 53 159 68 233 34z m3017 -17 c123 -86 123 -262 0 -348 -57 -40 -149 -48 -208 -18 -164 84 -163 307 1 384 61 29 152 21 207 -18z m-3418 -1274 c20 -14 49 -43 64 -64 24 -35 27 -49 27 -116 0 -65 -4 -82 -25 -113 -14 -21 -43 -50 -65 -65 -35 -24 -50 -27 -116 -27 -64 0 -81 4 -112 25 -81 55 -118 161 -88 253 14 41 72 104 115 123 50 23 155 14 200 -16z m3840 0 c20 -14 49 -43 64 -64 24 -35 27 -49 27 -116 0 -67 -3 -81 -27 -116 -15 -21 -44 -50 -65 -64 -31 -21 -48 -25 -113 -25 -65 0 -82 4 -113 25 -81 55 -118 161 -88 253 14 41 72 104 115 123 50 23 155 14 200 -16z m-3622 -1286 c162 -113 97 -366 -97 -382 -197 -16 -310 209 -177 352 69 74 193 87 274 30z m3383 17 c104 -47 153 -174 106 -276 -71 -158 -296 -167 -380 -15 -60 108 -8 252 109 299 40 16 122 12 165 -8z m-2560 -640 c104 -47 153 -174 106 -276 -71 -158 -296 -167 -380 -15 -60 108 -8 252 109 299 40 16 122 12 165 -8z m1737 -17 c162 -113 97 -366 -97 -382 -197 -16 -310 209 -177 352 69 74 193 87 274 30z"/>
</g>
</svg>
