<svg xmlns="http://www.w3.org/2000/svg" viewBox="0 0 512 512">
<g transform="translate(0,512) scale(0.1,-0.1)">
<path d="M485 4231 c-56 -26 -81 -56 -119 -148 -99 -233 -155 -470 -163 -688 -6 -174 8 -279 58 -421 17 -49 33 -96 35 -104 4 -12 -7 -19 -45 -29 -37 -9 -60 -24 -90 -56 -51 -55 -69 -92 -87 -173 -28 -134 -9 -263 61 -409 41 -84 143 -226 184 -256 10 -6 37 -29 60 -49 l43 -37 -21 -27 c-73 -93 -32 -258 103 -401 96 -103 211 -172 366 -218 52 -16 74 -27 71 -36 -2 -8 -6 -41 -8 -74 -4 -51 -1 -65 19 -95 51 -76 208 -134 363 -134 120 0 198 18 312 74 281 138 476 437 499 764 12 172 -31 365 -117 526 -52 95 -79 132 -250 337 -400 479 -739 983 -970 1444 -82 165 -111 200 -177 219 -52 14 -81 12 -127 -9z"/>
<path d="M4497 4235 c-22 -7 -50 -24 -64 -37 -13 -12 -67 -106 -119 -208 -226 -445 -569 -955 -953 -1413 -171 -205 -198 -242 -250 -337 -149 -278 -158 -593 -25 -870 111 -233 300 -399 534 -471 189 -58 461 -6 541 104 31 43 39 109 19 162 -7 19 -6 27 3 29 219 66 300 110 413 221 151 149 200 314 124 417 l-22 30 44 36 c187 156 300 360 315 567 6 88 -12 187 -46 253 -27 53 -91 108 -143 123 -24 7 -44 13 -46 14 -1 1 15 56 37 121 52 157 65 253 58 428 -9 201 -56 407 -149 644 -45 116 -75 157 -133 183 -47 22 -86 23 -138 4z"/>
</g>
</svg>
