<svg xmlns="http://www.w3.org/2000/svg" viewBox="0 0 512 512">
<g transform="translate(0,512) scale(0.1,-0.1)">
<path d="M2370 5114 c-19 -2 -78 -9 -130 -15 -791 -90 -1522 -586 -1924 -1305 -146 -262 -252 -588 -297 -914 -18 -125 -18 -515 0 -640 105 -762 511 -1409 1146 -1826 609 -400 1377 -517 2090 -317 929 260 1646 1043 1819 1987 156 845 -103 1682 -705 2285 -399 398 -879 639 -1449 726 -100 15 -472 28 -550 19z m381 -664 c1051 -107 1818 -1062 1694 -2110 -123 -1043 -1066 -1788 -2105 -1665 -1117 132 -1877 1200 -1634 2294 210 941 1089 1577 2045 1481z"/>
<path d="M2405 4154 c-709 -76 -1277 -596 -1417 -1297 -32 -161 -32 -433 0 -594 64 -321 214 -604 439 -829 230 -230 502 -376 833 -445 141 -30 438 -33 575 -6 342 68 620 213 850 443 236 235 386 522 452 859 27 139 24 425 -5 572 -129 648 -623 1144 -1267 1273 -98 20 -368 34 -460 24z m344 -759 c102 -206 187 -375 190 -375 16 0 824 -120 826 -122 2 -2 -132 -133 -296 -293 -198 -192 -299 -297 -299 -310 0 -11 31 -198 69 -415 37 -217 67 -396 66 -398 -2 -2 -170 85 -374 192 l-370 196 -372 -196 c-204 -107 -372 -194 -374 -192 -1 2 28 181 66 398 38 217 69 404 69 415 0 13 -101 118 -299 310 -164 160 -298 291 -297 292 2 2 818 123 830 123 1 0 85 169 187 375 101 206 186 375 189 375 3 0 88 -169 189 -375z"/>
<path d="M2470 2920 c-61 -122 -91 -172 -105 -176 -11 -2 -96 -15 -188 -28 -93 -14 -171 -26 -173 -29 -2 -2 58 -65 134 -139 l139 -136 -33 -189 c-18 -103 -31 -190 -29 -191 2 -2 81 37 175 86 l171 90 170 -90 c94 -49 172 -88 174 -86 2 1 -11 88 -29 191 l-33 188 139 136 c76 75 136 138 134 140 -2 2 -80 15 -172 29 -93 13 -178 27 -189 29 -14 3 -44 51 -105 175 -46 93 -87 170 -90 170 -3 0 -44 -77 -90 -170z"/>
</g>
</svg>
