<svg xmlns="http://www.w3.org/2000/svg" viewBox="0 0 512 512">
<g transform="translate(0,512) scale(0.1,-0.1)">
<path d="M1533 4785 c-30 -21 -107 -140 -144 -220 -16 -37 -42 -110 -57 -163 -25 -90 -27 -111 -27 -292 0 -219 8 -267 61 -378 71 -147 208 -251 362 -274 182 -29 369 79 457 264 46 96 58 163 52 283 -6 120 -30 194 -97 292 -83 123 -209 197 -353 209 l-72 7 -49 134 c-56 154 -78 176 -133 138z"/>
<path d="M3519 4790 c-9 -5 -38 -70 -65 -143 l-49 -134 -72 -7 c-144 -12 -270 -86 -353 -209 -67 -98 -91 -172 -97 -292 -7 -125 7 -192 58 -295 67 -134 185 -224 330 -251 186 -34 391 82 483 273 53 111 61 159 61 378 0 172 -3 205 -23 279 -43 155 -111 293 -185 374 -35 37 -58 44 -88 27z"/>
<path d="M573 3569 c-47 -17 -144 -174 -191 -309 -45 -131 -57 -209 -57 -375 0 -127 3 -161 22 -221 42 -134 129 -235 249 -291 51 -24 71 -28 149 -27 75 0 99 4 146 26 106 48 187 144 229 268 24 73 29 206 9 285 -42 170 -177 310 -329 340 l-55 11 -42 115 c-70 187 -78 198 -130 178z"/>
<path d="M4587 3452 c-23 -32 -63 -89 -89 -125 l-47 -66 -71 0 c-91 0 -163 -21 -238 -71 -199 -133 -277 -411 -175 -627 72 -155 237 -244 395 -215 134 25 262 119 326 240 40 76 79 202 98 320 28 168 5 384 -56 527 -40 96 -81 101 -143 17z"/>
<path d="M2455 3300 c-330 -37 -627 -260 -755 -566 -18 -43 -45 -140 -60 -216 -34 -164 -68 -236 -155 -323 -33 -33 -89 -75 -125 -94 -303 -158 -486 -403 -531 -712 -32 -223 20 -454 145 -642 129 -195 327 -338 551 -398 118 -32 337 -33 453 -1 103 28 189 66 297 133 106 65 184 89 285 89 100 0 183 -25 280 -86 104 -65 201 -109 301 -136 117 -32 336 -31 454 1 467 126 770 585 694 1051 -26 164 -112 345 -224 473 -65 75 -172 157 -278 213 -110 59 -198 142 -245 232 -24 45 -42 102 -62 200 -32 160 -70 257 -142 368 -191 290 -539 453 -883 414z"/>
</g>
</svg>
