<svg xmlns="http://www.w3.org/2000/svg" viewBox="0 0 512 512">
<g transform="translate(0,512) scale(0.1,-0.1)">
<path d="M76 5091 c-44 -29 -66 -70 -66 -124 0 -26 7 -61 15 -77 21 -40 170 -168 294 -251 201 -136 380 -214 862 -378 576 -195 769 -283 1077 -488 l144 -96 354 354 c267 267 351 356 343 366 -19 22 -212 149 -314 206 -252 141 -540 242 -844 296 -208 38 -405 52 -826 61 -466 9 -511 15 -781 104 -155 51 -213 57 -258 27z"/>
<path d="M4665 5020 c-143 -49 -361 -124 -484 -167 -243 -83 -282 -105 -301 -171 -19 -70 0 -105 126 -232 l114 -116 -55 -54 -55 -55 105 -105 105 -104 55 54 55 55 118 -117 c64 -64 130 -122 145 -127 60 -23 118 -8 165 41 14 16 80 193 193 524 181 529 184 540 144 600 -25 39 -74 64 -125 63 -30 0 -134 -31 -305 -89z"/>
<path d="M50 4422 c1 -65 225 -2781 230 -2786 3 -2 30 4 60 14 37 13 83 19 143 20 83 0 87 1 87 23 0 30 -199 2481 -205 2532 -5 38 -10 43 -68 75 -34 19 -104 62 -154 97 l-93 62 0 -37z"/>
<path d="M3435 4260 c-32 -10 -696 -665 -721 -712 -18 -34 -18 -89 0 -131 18 -41 672 -692 709 -706 39 -15 93 -14 125 3 15 8 181 169 368 358 301 302 342 347 347 380 13 83 7 91 -342 441 -179 181 -339 337 -356 347 -38 23 -92 32 -130 20z"/>
<path d="M4030 2755 l-354 -354 71 -103 c103 -151 148 -226 228 -388 93 -186 158 -350 290 -740 157 -461 235 -643 362 -835 75 -114 204 -268 251 -300 70 -48 167 -29 213 41 30 45 24 103 -27 258 -89 270 -95 315 -104 781 -11 520 -31 727 -101 1012 -56 231 -145 459 -255 655 -62 110 -184 298 -206 316 -11 9 -87 -62 -368 -343z"/>
<path d="M1947 2162 l-787 -787 105 -105 105 -105 790 790 790 790 -102 102 c-57 57 -105 103 -108 103 -3 0 -359 -354 -793 -788z"/>
<path d="M475 1375 c-5 -2 -23 -6 -40 -10 -36 -8 -387 -351 -416 -407 -23 -45 -24 -89 -3 -131 9 -18 77 -94 152 -169 l136 -138 -146 -147 c-120 -121 -148 -155 -153 -185 -18 -98 47 -178 145 -178 23 0 53 6 68 14 15 8 88 76 162 150 l135 136 -105 105 -105 105 423 423 c232 232 422 425 422 430 0 7 -654 9 -675 2z"/>
<path d="M940 735 l-425 -425 135 -136 c74 -74 147 -142 162 -150 15 -8 49 -14 76 -14 65 0 86 17 299 231 139 141 173 181 178 209 3 19 4 187 3 373 l-3 337 -425 -425z"/>
<path d="M1668 482 c-4 -63 -12 -115 -26 -149 -11 -29 -17 -53 -14 -53 4 0 632 -52 1397 -115 764 -63 1399 -115 1411 -115 20 0 15 12 -49 108 -40 59 -83 129 -97 155 -20 37 -31 48 -55 52 -16 2 -280 25 -585 50 -1269 103 -1897 155 -1936 159 l-41 5 -5 -97z"/>
</g>
</svg>
