<svg xmlns="http://www.w3.org/2000/svg" viewBox="0 0 512 512">
<g transform="translate(0,512) scale(0.1,-0.1)" fill="#000000" stroke="none">
<path d="M2380 5114 c-19 -2 -78 -9 -130 -14 -330 -36 -695 -160 -990 -336
-375 -224 -680 -529 -904 -904 -175 -292 -291 -632 -338 -990 -16 -123 -16
-497 0 -620 82 -623 356 -1150 820 -1581 256 -239 575 -425 922 -539 274 -91
491 -124 800 -124 228 0 329 9 530 50 689 141 1304 583 1674 1204 175 292 291
632 338 990 16 123 16 497 0 620 -47 358 -163 698 -338 990 -224 375 -529 680
-904 904 -289 173 -634 291 -980 336 -88 12 -438 21 -500 14z m28 -1151 l-3
-846 -67 -27 -66 -27 -598 598 c-522 522 -596 600 -582 611 243 193 422 300
651 389 195 76 473 140 640 148 l27 1 -2 -847z m412 837 c325 -40 633 -146
916 -317 65 -40 186 -127 292 -211 14 -11 -60 -89 -582 -611 l-598 -598 -66
27 -67 27 -3 846 c-2 684 0 847 11 847 7 0 51 -5 97 -10z m-1359 -1356 l596
-596 -27 -66 -27 -67 -846 -3 c-684 -2 -847 0 -847 11 0 7 5 51 10 97 51 419
213 807 478 1146 31 40 59 73 62 74 3 0 273 -268 601 -596z m2861 522 c265
-339 427 -727 478 -1146 5 -46 10 -90 10 -97 0 -11 -163 -13 -847 -11 l-846 3
-27 65 -27 65 596 598 c328 328 598 597 601 597 3 -1 31 -34 62 -74z m-1625
-1172 c167 -103 179 -333 25 -451 -117 -89 -288 -64 -379 55 -42 55 -57 111
-50 190 6 73 40 137 98 184 56 45 104 59 186 55 59 -3 82 -10 120 -33z m-667
-456 l27 -66 -598 -598 c-522 -522 -600 -596 -611 -582 -241 304 -371 549
-457 857 -40 145 -81 370 -81 448 0 11 163 13 847 11 l846 -3 27 -67z m2780
59 c0 -78 -41 -303 -81 -448 -86 -308 -216 -553 -457 -857 -11 -14 -89 60
-611 582 l-599 599 20 46 c10 25 23 56 28 69 l10 22 845 0 c679 0 845 -3 845
-13z m-2402 -1240 c2 -684 0 -847 -11 -847 -78 0 -303 41 -448 81 -308 86
-553 216 -857 457 -14 11 60 89 582 611 l598 598 66 -27 67 -27 3 -846z m1632
-297 c-1 -3 -34 -31 -74 -62 -339 -265 -727 -427 -1146 -478 -46 -5 -90 -10
-97 -10 -11 0 -13 163 -11 847 l3 846 65 27 65 27 598 -596 c328 -328 597
-598 597 -601z"/>
</g>
</svg>
